<svg width="91" height="95" viewBox="0 0 91 95" fill="none" xmlns="http://www.w3.org/2000/svg">
<path fill-rule="evenodd" clip-rule="evenodd" d="M68.1867 71.7925C73.3434 67.598 79.13 64.1003 84.7629 60.7522C85.978 60.0355 87.5569 60.409 88.193 61.6242C88.9213 62.8006 88.5016 64.3473 87.3782 65.0243C81.9165 68.2644 76.2941 71.6352 71.386 75.6489C70.3426 76.5102 68.7504 76.3594 67.855 75.3002C66.96 74.242 67.1437 72.6548 68.1867 71.7925Z" fill="#A5C9FF"/>
<path fill-rule="evenodd" clip-rule="evenodd" d="M40.2568 56.1518C45.5233 42.4101 52.5209 29.3923 57.4916 15.4714C57.9162 14.1885 59.3625 13.5023 60.6544 13.9676C61.9467 14.4339 62.6684 15.8474 62.1521 17.1701C57.1937 31.1194 50.2081 44.1647 44.954 57.9349C44.4281 59.2356 42.9662 59.885 41.6636 59.3949C40.4531 58.8659 39.731 57.4525 40.2568 56.1518Z" fill="#A5C9FF"/>
<path fill-rule="evenodd" clip-rule="evenodd" d="M6.461 26.7429C8.57983 32.3814 10.6992 38.0196 12.8184 43.6591C13.3668 44.9233 12.6888 46.3771 11.3777 46.8728C10.0663 47.3676 8.68265 46.6892 8.13388 45.424C6.01107 39.7764 3.88812 34.1298 1.76571 28.483C1.30908 27.1791 1.98952 25.7318 3.30374 25.2434C4.52622 24.7949 6.00477 25.4398 6.461 26.7429Z" fill="#A5C9FF"/>
</svg>
