<svg width="52" height="33" viewBox="0 0 52 33" fill="none" xmlns="http://www.w3.org/2000/svg">
<mask id="path-1-outside-1_38_124" maskUnits="userSpaceOnUse" x="0.28125" y="0" width="52" height="33" fill="black">
<rect fill="white" x="0.28125" width="52" height="33"/>
<path d="M7.81973 19.0258C6.56589 17.7719 5.16822 17.5731 4.05519 17.9949C3.62458 18.1579 3.23416 18.4145 2.9097 18.7393C2.58527 19.0637 2.32868 19.4541 2.16535 19.8848C1.74359 20.9978 1.94267 22.3955 3.19617 23.6493L10.0409 30.494C10.1511 30.6043 10.2577 30.7027 10.3616 30.7901C10.4711 30.8826 10.5821 30.9682 10.6942 31.0471L10.706 31.0563C10.9854 31.2727 11.3003 31.4445 11.6391 31.5599C11.9654 31.6708 12.3119 31.7298 12.6692 31.7261H12.6743C13.0316 31.7298 13.3785 31.6708 13.7048 31.5599C14.0436 31.4445 14.3584 31.273 14.6379 31.0566L14.65 31.0474C14.7621 30.9685 14.8734 30.883 14.9829 30.7905C15.0865 30.7031 15.1935 30.6043 15.3033 30.4944L22.148 23.6497C23.4019 22.3958 23.6006 20.9982 23.1789 19.8851C23.0159 19.4545 22.7593 19.0641 22.4345 18.7396C22.1101 18.4152 21.7197 18.1586 21.289 17.9953C20.3025 17.6215 19.0918 17.7354 17.9563 18.6397L16.7017 19.8943C16.6652 19.9308 16.6224 19.9574 16.5771 19.9736L13.5068 23.0439C13.2454 23.3053 12.9943 23.4531 12.7219 23.4734C12.4354 23.4948 12.1692 23.3761 11.8953 23.1025L7.81973 19.0258ZM24.0411 7.03825C23.9124 6.90148 23.919 6.68617 24.0558 6.5575C24.1926 6.42883 24.4079 6.43546 24.5366 6.57224L24.5793 6.61538C25.0052 7.04599 25.5515 7.25687 26.0975 7.25871C26.6483 7.26055 27.2013 7.05262 27.6349 6.64561C27.653 6.62865 27.6677 6.61464 27.6791 6.60321C27.8122 6.47086 28.0275 6.47123 28.1599 6.60469C28.2922 6.73778 28.2919 6.95308 28.1584 7.08544C28.1363 7.10756 28.1171 7.12599 28.1009 7.14111C27.5372 7.67016 26.8169 7.94076 26.0972 7.93818C25.3731 7.9356 24.6523 7.65946 24.0942 7.09502C24.0901 7.09097 24.0728 7.0718 24.0411 7.03825ZM39.7063 9.50837C40.9646 9.50837 42.1033 10.0182 42.9281 10.843C43.7529 11.6678 44.2628 12.8066 44.2628 14.0649C44.2628 15.3231 43.7529 16.4619 42.9281 17.2867C42.1038 18.1114 40.9646 18.6213 39.7063 18.6213C38.448 18.6213 37.3092 18.1115 36.4844 17.2867C35.6597 16.462 35.1498 15.3231 35.1498 14.0649C35.1498 12.8066 35.6597 11.6678 36.4844 10.843C37.3092 10.0183 38.448 9.50837 39.7063 9.50837ZM42.4459 11.3252C41.7446 10.624 40.7762 10.1905 39.7063 10.1905C38.6364 10.1905 37.6679 10.624 36.9667 11.3252C36.2655 12.0264 35.832 12.9949 35.832 14.0648C35.832 15.1346 36.2655 16.1032 36.9667 16.8043C37.6679 17.5055 38.6364 17.9391 39.7063 17.9391C40.7762 17.9391 41.7447 17.5055 42.4459 16.8043C43.1471 16.1031 43.5806 15.1346 43.5806 14.0648C43.5806 12.9949 43.147 12.0263 42.4459 11.3252ZM12.9313 9.50837C14.1896 9.50837 15.3284 10.0182 16.1532 10.843C16.9779 11.6678 17.4878 12.8066 17.4878 14.0649C17.4878 15.3231 16.9779 16.4619 16.1532 17.2867C15.3284 18.1115 14.1896 18.6213 12.9313 18.6213C11.673 18.6213 10.5342 18.1115 9.70945 17.2867C8.88466 16.4619 8.37482 15.3231 8.37482 14.0649C8.37482 12.8066 8.88469 11.6678 9.70945 10.843C10.5342 10.0182 11.673 9.50837 12.9313 9.50837ZM15.6709 11.3252C14.9697 10.624 14.0012 10.1905 12.9313 10.1905C11.8614 10.1905 10.8929 10.624 10.1917 11.3252C9.49052 12.0264 9.057 12.9949 9.057 14.0648C9.057 15.1346 9.49056 16.1032 10.1917 16.8043C10.8929 17.5055 11.8614 17.9391 12.9313 17.9391C14.0012 17.9391 14.9697 17.5055 15.6709 16.8043C16.3721 16.1031 16.8056 15.1346 16.8056 14.0648C16.8056 12.9949 16.372 12.0263 15.6709 11.3252ZM26.1622 1C27.4204 1 28.5592 1.50987 29.384 2.33463C30.2087 3.15935 30.7187 4.29821 30.7187 5.55648C30.7187 6.81476 30.2088 7.95355 29.384 8.77834C28.5593 9.60312 27.4204 10.113 26.1622 10.113C24.9039 10.113 23.7651 9.6031 22.9403 8.77834C22.1156 7.95362 21.6057 6.81476 21.6057 5.55648C21.6057 4.29821 22.1156 3.15942 22.9403 2.33463C23.765 1.50991 24.9039 1 26.1622 1ZM28.9017 2.81682C28.2005 2.1156 27.2321 1.68208 26.1622 1.68208C25.0923 1.68208 24.1237 2.11565 23.4226 2.81682C22.7214 3.51803 22.2879 4.4865 22.2879 5.55639C22.2879 6.62628 22.7214 7.59481 23.4226 8.29596C24.1238 8.99718 25.0923 9.43069 26.1622 9.43069C27.2321 9.43069 28.2006 8.99713 28.9017 8.29596C29.6029 7.59479 30.0365 6.62628 30.0365 5.55639C30.0365 4.4865 29.6029 3.51797 28.9017 2.81682ZM29.6509 24.1307C29.6218 24.1016 29.5989 24.068 29.5823 24.0326L26.5308 20.9811C26.3856 20.8358 26.2709 20.7555 26.1802 20.7488C26.1032 20.743 26.008 20.7986 25.8838 20.9229L21.8077 24.999C21.7712 25.0355 21.7284 25.062 21.6831 25.0782L15.7859 30.9755C15.6701 31.0912 15.5492 31.2022 15.4227 31.3087C15.2963 31.4157 15.1691 31.5137 15.0419 31.6029C14.706 31.8607 14.3288 32.0656 13.9236 32.2035C13.5303 32.3373 13.1089 32.4085 12.672 32.4044C12.2355 32.4085 11.8141 32.3377 11.4207 32.2035C11.0155 32.0656 10.638 31.8607 10.3021 31.6026C10.1749 31.5134 10.0481 31.4153 9.92163 31.3084C9.79555 31.2018 9.67425 31.0905 9.55848 30.9747L2.71375 24.13C1.24161 22.6579 1.01935 20.9878 1.52843 19.6436C1.72715 19.1186 2.0372 18.6457 2.42725 18.2556C2.81731 17.8655 3.29031 17.5555 3.8153 17.3568C5.15946 16.8476 6.82961 17.0699 8.30166 18.5421L12.3777 22.6182C12.5016 22.7421 12.5971 22.7977 12.6742 22.7922C12.7649 22.7856 12.8799 22.7052 13.0248 22.5599L17.0425 18.5422C17.1941 18.3903 17.3482 18.2524 17.5034 18.1267L23.0644 12.5656C23.1802 12.4499 23.3015 12.3389 23.4276 12.232C23.554 12.1251 23.6812 12.027 23.808 11.9378C24.1439 11.6801 24.5211 11.4751 24.9266 11.3372C25.32 11.2034 25.741 11.1322 26.1779 11.1363C26.6148 11.1322 27.0358 11.2034 27.4296 11.3372C27.8348 11.4751 28.2119 11.6801 28.5478 11.9378C28.675 12.027 28.8022 12.1251 28.9287 12.232C29.0547 12.3385 29.176 12.4499 29.2918 12.5652L36.1365 19.41C36.2589 19.5324 36.3725 19.6559 36.4776 19.7805L39.3148 22.6177C39.4387 22.7416 39.5342 22.7973 39.6112 22.7918C39.7019 22.7851 39.8169 22.7048 39.9618 22.5595L43.9792 18.5417C45.4513 17.0696 47.1214 16.8473 48.4656 17.3564C48.9906 17.5551 49.4632 17.8652 49.8536 18.2552C50.2437 18.6453 50.5537 19.1183 50.7524 19.6433C51.2616 20.9874 51.0393 22.6576 49.5671 24.1296L42.7224 30.9744C42.6066 31.0901 42.4857 31.2011 42.3592 31.3076C42.2328 31.4146 42.1056 31.5126 41.9784 31.6019C41.6425 31.8596 41.2654 32.0645 40.8602 32.2024C40.4668 32.3363 40.0454 32.4074 39.6085 32.4033C39.172 32.4074 38.7506 32.3366 38.3572 32.2024C37.952 32.0645 37.5745 31.8596 37.2386 31.6015C37.1114 31.5123 36.9846 31.4142 36.8582 31.3073C36.7317 31.2004 36.6108 31.0894 36.495 30.9736L29.6503 24.1289L29.6509 24.1307ZM32.8126 26.3279L36.9779 30.4932C37.0881 30.6035 37.1947 30.7019 37.2986 30.7893C37.4081 30.8818 37.5191 30.9673 37.6312 31.0462L37.6433 31.0554C37.9228 31.2719 38.2376 31.4437 38.5765 31.5591C38.9027 31.67 39.2493 31.729 39.6065 31.7253H39.6117C39.9689 31.729 40.3158 31.67 40.6421 31.5591C40.9809 31.4437 41.2958 31.2722 41.5752 31.0558L41.5874 31.0466C41.6995 30.9677 41.8108 30.8822 41.9203 30.7896C42.0239 30.7023 42.1308 30.6034 42.2407 30.4936L49.0854 23.6489C50.3392 22.395 50.538 20.9973 50.1162 19.8843C49.9533 19.4537 49.6967 19.0633 49.3719 18.7388C49.0474 18.4144 48.657 18.1578 48.2264 17.9945C47.1134 17.5727 45.7157 17.7718 44.4618 19.0253L40.4441 23.0431C40.1827 23.3044 39.9316 23.4523 39.6592 23.4726C39.3727 23.4939 39.1065 23.3752 38.8326 23.1017L37.4829 21.752C37.6447 22.5044 37.571 23.2403 37.3218 23.898C37.1231 24.423 36.813 24.8959 36.423 25.286C36.0329 25.6761 35.5599 25.9861 35.0349 26.1848C34.3551 26.4425 33.5916 26.5119 32.8126 26.3279ZM35.9725 20.2408L34.7566 19.0249C34.7274 18.9958 34.7046 18.9622 34.688 18.9268L28.8095 13.0484C28.6997 12.9385 28.5927 12.8401 28.4892 12.7523C28.3797 12.6598 28.2683 12.5743 28.1562 12.4954L28.1444 12.4861C27.865 12.2697 27.5501 12.0983 27.2113 11.9829C26.8851 11.8719 26.5381 11.8129 26.1809 11.8166H26.1757C25.8185 11.8129 25.4716 11.8719 25.1457 11.9829C24.8069 12.0983 24.4916 12.2701 24.2122 12.4865L24.2 12.4957C24.088 12.5746 23.977 12.6602 23.8675 12.7527C23.7639 12.8404 23.657 12.9389 23.5467 13.0487L19.4029 17.1926C20.1483 17.0363 20.8772 17.1111 21.529 17.3581C22.054 17.5568 22.527 17.8669 22.917 18.2569C23.3071 18.647 23.6172 19.12 23.8159 19.645C24.0758 20.3311 24.1447 21.102 23.9549 21.888L25.4015 20.4414C25.6754 20.1675 25.9416 20.0491 26.2281 20.0705C26.5009 20.0908 26.752 20.2386 27.013 20.5L31.0304 24.5174C32.2842 25.7712 33.6819 25.97 34.7949 25.5482C35.2255 25.3852 35.6159 25.1286 35.9404 24.8038C36.2648 24.4794 36.5214 24.089 36.6847 23.6584C37.0678 22.6471 36.9391 21.4006 35.9725 20.2408Z"/>
</mask>
<path d="M7.81973 19.0258C6.56589 17.7719 5.16822 17.5731 4.05519 17.9949C3.62458 18.1579 3.23416 18.4145 2.9097 18.7393C2.58527 19.0637 2.32868 19.4541 2.16535 19.8848C1.74359 20.9978 1.94267 22.3955 3.19617 23.6493L10.0409 30.494C10.1511 30.6043 10.2577 30.7027 10.3616 30.7901C10.4711 30.8826 10.5821 30.9682 10.6942 31.0471L10.706 31.0563C10.9854 31.2727 11.3003 31.4445 11.6391 31.5599C11.9654 31.6708 12.3119 31.7298 12.6692 31.7261H12.6743C13.0316 31.7298 13.3785 31.6708 13.7048 31.5599C14.0436 31.4445 14.3584 31.273 14.6379 31.0566L14.65 31.0474C14.7621 30.9685 14.8734 30.883 14.9829 30.7905C15.0865 30.7031 15.1935 30.6043 15.3033 30.4944L22.148 23.6497C23.4019 22.3958 23.6006 20.9982 23.1789 19.8851C23.0159 19.4545 22.7593 19.0641 22.4345 18.7396C22.1101 18.4152 21.7197 18.1586 21.289 17.9953C20.3025 17.6215 19.0918 17.7354 17.9563 18.6397L16.7017 19.8943C16.6652 19.9308 16.6224 19.9574 16.5771 19.9736L13.5068 23.0439C13.2454 23.3053 12.9943 23.4531 12.7219 23.4734C12.4354 23.4948 12.1692 23.3761 11.8953 23.1025L7.81973 19.0258ZM24.0411 7.03825C23.9124 6.90148 23.919 6.68617 24.0558 6.5575C24.1926 6.42883 24.4079 6.43546 24.5366 6.57224L24.5793 6.61538C25.0052 7.04599 25.5515 7.25687 26.0975 7.25871C26.6483 7.26055 27.2013 7.05262 27.6349 6.64561C27.653 6.62865 27.6677 6.61464 27.6791 6.60321C27.8122 6.47086 28.0275 6.47123 28.1599 6.60469C28.2922 6.73778 28.2919 6.95308 28.1584 7.08544C28.1363 7.10756 28.1171 7.12599 28.1009 7.14111C27.5372 7.67016 26.8169 7.94076 26.0972 7.93818C25.3731 7.9356 24.6523 7.65946 24.0942 7.09502C24.0901 7.09097 24.0728 7.0718 24.0411 7.03825ZM39.7063 9.50837C40.9646 9.50837 42.1033 10.0182 42.9281 10.843C43.7529 11.6678 44.2628 12.8066 44.2628 14.0649C44.2628 15.3231 43.7529 16.4619 42.9281 17.2867C42.1038 18.1114 40.9646 18.6213 39.7063 18.6213C38.448 18.6213 37.3092 18.1115 36.4844 17.2867C35.6597 16.462 35.1498 15.3231 35.1498 14.0649C35.1498 12.8066 35.6597 11.6678 36.4844 10.843C37.3092 10.0183 38.448 9.50837 39.7063 9.50837ZM42.4459 11.3252C41.7446 10.624 40.7762 10.1905 39.7063 10.1905C38.6364 10.1905 37.6679 10.624 36.9667 11.3252C36.2655 12.0264 35.832 12.9949 35.832 14.0648C35.832 15.1346 36.2655 16.1032 36.9667 16.8043C37.6679 17.5055 38.6364 17.9391 39.7063 17.9391C40.7762 17.9391 41.7447 17.5055 42.4459 16.8043C43.1471 16.1031 43.5806 15.1346 43.5806 14.0648C43.5806 12.9949 43.147 12.0263 42.4459 11.3252ZM12.9313 9.50837C14.1896 9.50837 15.3284 10.0182 16.1532 10.843C16.9779 11.6678 17.4878 12.8066 17.4878 14.0649C17.4878 15.3231 16.9779 16.4619 16.1532 17.2867C15.3284 18.1115 14.1896 18.6213 12.9313 18.6213C11.673 18.6213 10.5342 18.1115 9.70945 17.2867C8.88466 16.4619 8.37482 15.3231 8.37482 14.0649C8.37482 12.8066 8.88469 11.6678 9.70945 10.843C10.5342 10.0182 11.673 9.50837 12.9313 9.50837ZM15.6709 11.3252C14.9697 10.624 14.0012 10.1905 12.9313 10.1905C11.8614 10.1905 10.8929 10.624 10.1917 11.3252C9.49052 12.0264 9.057 12.9949 9.057 14.0648C9.057 15.1346 9.49056 16.1032 10.1917 16.8043C10.8929 17.5055 11.8614 17.9391 12.9313 17.9391C14.0012 17.9391 14.9697 17.5055 15.6709 16.8043C16.3721 16.1031 16.8056 15.1346 16.8056 14.0648C16.8056 12.9949 16.372 12.0263 15.6709 11.3252ZM26.1622 1C27.4204 1 28.5592 1.50987 29.384 2.33463C30.2087 3.15935 30.7187 4.29821 30.7187 5.55648C30.7187 6.81476 30.2088 7.95355 29.384 8.77834C28.5593 9.60312 27.4204 10.113 26.1622 10.113C24.9039 10.113 23.7651 9.6031 22.9403 8.77834C22.1156 7.95362 21.6057 6.81476 21.6057 5.55648C21.6057 4.29821 22.1156 3.15942 22.9403 2.33463C23.765 1.50991 24.9039 1 26.1622 1ZM28.9017 2.81682C28.2005 2.1156 27.2321 1.68208 26.1622 1.68208C25.0923 1.68208 24.1237 2.11565 23.4226 2.81682C22.7214 3.51803 22.2879 4.4865 22.2879 5.55639C22.2879 6.62628 22.7214 7.59481 23.4226 8.29596C24.1238 8.99718 25.0923 9.43069 26.1622 9.43069C27.2321 9.43069 28.2006 8.99713 28.9017 8.29596C29.6029 7.59479 30.0365 6.62628 30.0365 5.55639C30.0365 4.4865 29.6029 3.51797 28.9017 2.81682ZM29.6509 24.1307C29.6218 24.1016 29.5989 24.068 29.5823 24.0326L26.5308 20.9811C26.3856 20.8358 26.2709 20.7555 26.1802 20.7488C26.1032 20.743 26.008 20.7986 25.8838 20.9229L21.8077 24.999C21.7712 25.0355 21.7284 25.062 21.6831 25.0782L15.7859 30.9755C15.6701 31.0912 15.5492 31.2022 15.4227 31.3087C15.2963 31.4157 15.1691 31.5137 15.0419 31.6029C14.706 31.8607 14.3288 32.0656 13.9236 32.2035C13.5303 32.3373 13.1089 32.4085 12.672 32.4044C12.2355 32.4085 11.8141 32.3377 11.4207 32.2035C11.0155 32.0656 10.638 31.8607 10.3021 31.6026C10.1749 31.5134 10.0481 31.4153 9.92163 31.3084C9.79555 31.2018 9.67425 31.0905 9.55848 30.9747L2.71375 24.13C1.24161 22.6579 1.01935 20.9878 1.52843 19.6436C1.72715 19.1186 2.0372 18.6457 2.42725 18.2556C2.81731 17.8655 3.29031 17.5555 3.8153 17.3568C5.15946 16.8476 6.82961 17.0699 8.30166 18.5421L12.3777 22.6182C12.5016 22.7421 12.5971 22.7977 12.6742 22.7922C12.7649 22.7856 12.8799 22.7052 13.0248 22.5599L17.0425 18.5422C17.1941 18.3903 17.3482 18.2524 17.5034 18.1267L23.0644 12.5656C23.1802 12.4499 23.3015 12.3389 23.4276 12.232C23.554 12.1251 23.6812 12.027 23.808 11.9378C24.1439 11.6801 24.5211 11.4751 24.9266 11.3372C25.32 11.2034 25.741 11.1322 26.1779 11.1363C26.6148 11.1322 27.0358 11.2034 27.4296 11.3372C27.8348 11.4751 28.2119 11.6801 28.5478 11.9378C28.675 12.027 28.8022 12.1251 28.9287 12.232C29.0547 12.3385 29.176 12.4499 29.2918 12.5652L36.1365 19.41C36.2589 19.5324 36.3725 19.6559 36.4776 19.7805L39.3148 22.6177C39.4387 22.7416 39.5342 22.7973 39.6112 22.7918C39.7019 22.7851 39.8169 22.7048 39.9618 22.5595L43.9792 18.5417C45.4513 17.0696 47.1214 16.8473 48.4656 17.3564C48.9906 17.5551 49.4632 17.8652 49.8536 18.2552C50.2437 18.6453 50.5537 19.1183 50.7524 19.6433C51.2616 20.9874 51.0393 22.6576 49.5671 24.1296L42.7224 30.9744C42.6066 31.0901 42.4857 31.2011 42.3592 31.3076C42.2328 31.4146 42.1056 31.5126 41.9784 31.6019C41.6425 31.8596 41.2654 32.0645 40.8602 32.2024C40.4668 32.3363 40.0454 32.4074 39.6085 32.4033C39.172 32.4074 38.7506 32.3366 38.3572 32.2024C37.952 32.0645 37.5745 31.8596 37.2386 31.6015C37.1114 31.5123 36.9846 31.4142 36.8582 31.3073C36.7317 31.2004 36.6108 31.0894 36.495 30.9736L29.6503 24.1289L29.6509 24.1307ZM32.8126 26.3279L36.9779 30.4932C37.0881 30.6035 37.1947 30.7019 37.2986 30.7893C37.4081 30.8818 37.5191 30.9673 37.6312 31.0462L37.6433 31.0554C37.9228 31.2719 38.2376 31.4437 38.5765 31.5591C38.9027 31.67 39.2493 31.729 39.6065 31.7253H39.6117C39.9689 31.729 40.3158 31.67 40.6421 31.5591C40.9809 31.4437 41.2958 31.2722 41.5752 31.0558L41.5874 31.0466C41.6995 30.9677 41.8108 30.8822 41.9203 30.7896C42.0239 30.7023 42.1308 30.6034 42.2407 30.4936L49.0854 23.6489C50.3392 22.395 50.538 20.9973 50.1162 19.8843C49.9533 19.4537 49.6967 19.0633 49.3719 18.7388C49.0474 18.4144 48.657 18.1578 48.2264 17.9945C47.1134 17.5727 45.7157 17.7718 44.4618 19.0253L40.4441 23.0431C40.1827 23.3044 39.9316 23.4523 39.6592 23.4726C39.3727 23.4939 39.1065 23.3752 38.8326 23.1017L37.4829 21.752C37.6447 22.5044 37.571 23.2403 37.3218 23.898C37.1231 24.423 36.813 24.8959 36.423 25.286C36.0329 25.6761 35.5599 25.9861 35.0349 26.1848C34.3551 26.4425 33.5916 26.5119 32.8126 26.3279ZM35.9725 20.2408L34.7566 19.0249C34.7274 18.9958 34.7046 18.9622 34.688 18.9268L28.8095 13.0484C28.6997 12.9385 28.5927 12.8401 28.4892 12.7523C28.3797 12.6598 28.2683 12.5743 28.1562 12.4954L28.1444 12.4861C27.865 12.2697 27.5501 12.0983 27.2113 11.9829C26.8851 11.8719 26.5381 11.8129 26.1809 11.8166H26.1757C25.8185 11.8129 25.4716 11.8719 25.1457 11.9829C24.8069 12.0983 24.4916 12.2701 24.2122 12.4865L24.2 12.4957C24.088 12.5746 23.977 12.6602 23.8675 12.7527C23.7639 12.8404 23.657 12.9389 23.5467 13.0487L19.4029 17.1926C20.1483 17.0363 20.8772 17.1111 21.529 17.3581C22.054 17.5568 22.527 17.8669 22.917 18.2569C23.3071 18.647 23.6172 19.12 23.8159 19.645C24.0758 20.3311 24.1447 21.102 23.9549 21.888L25.4015 20.4414C25.6754 20.1675 25.9416 20.0491 26.2281 20.0705C26.5009 20.0908 26.752 20.2386 27.013 20.5L31.0304 24.5174C32.2842 25.7712 33.6819 25.97 34.7949 25.5482C35.2255 25.3852 35.6159 25.1286 35.9404 24.8038C36.2648 24.4794 36.5214 24.089 36.6847 23.6584C37.0678 22.6471 36.9391 21.4006 35.9725 20.2408Z" fill="white"/>
<path d="M7.81973 19.0258C6.56589 17.7719 5.16822 17.5731 4.05519 17.9949C3.62458 18.1579 3.23416 18.4145 2.9097 18.7393C2.58527 19.0637 2.32868 19.4541 2.16535 19.8848C1.74359 20.9978 1.94267 22.3955 3.19617 23.6493L10.0409 30.494C10.1511 30.6043 10.2577 30.7027 10.3616 30.7901C10.4711 30.8826 10.5821 30.9682 10.6942 31.0471L10.706 31.0563C10.9854 31.2727 11.3003 31.4445 11.6391 31.5599C11.9654 31.6708 12.3119 31.7298 12.6692 31.7261H12.6743C13.0316 31.7298 13.3785 31.6708 13.7048 31.5599C14.0436 31.4445 14.3584 31.273 14.6379 31.0566L14.65 31.0474C14.7621 30.9685 14.8734 30.883 14.9829 30.7905C15.0865 30.7031 15.1935 30.6043 15.3033 30.4944L22.148 23.6497C23.4019 22.3958 23.6006 20.9982 23.1789 19.8851C23.0159 19.4545 22.7593 19.0641 22.4345 18.7396C22.1101 18.4152 21.7197 18.1586 21.289 17.9953C20.3025 17.6215 19.0918 17.7354 17.9563 18.6397L16.7017 19.8943C16.6652 19.9308 16.6224 19.9574 16.5771 19.9736L13.5068 23.0439C13.2454 23.3053 12.9943 23.4531 12.7219 23.4734C12.4354 23.4948 12.1692 23.3761 11.8953 23.1025L7.81973 19.0258ZM24.0411 7.03825C23.9124 6.90148 23.919 6.68617 24.0558 6.5575C24.1926 6.42883 24.4079 6.43546 24.5366 6.57224L24.5793 6.61538C25.0052 7.04599 25.5515 7.25687 26.0975 7.25871C26.6483 7.26055 27.2013 7.05262 27.6349 6.64561C27.653 6.62865 27.6677 6.61464 27.6791 6.60321C27.8122 6.47086 28.0275 6.47123 28.1599 6.60469C28.2922 6.73778 28.2919 6.95308 28.1584 7.08544C28.1363 7.10756 28.1171 7.12599 28.1009 7.14111C27.5372 7.67016 26.8169 7.94076 26.0972 7.93818C25.3731 7.9356 24.6523 7.65946 24.0942 7.09502C24.0901 7.09097 24.0728 7.0718 24.0411 7.03825ZM39.7063 9.50837C40.9646 9.50837 42.1033 10.0182 42.9281 10.843C43.7529 11.6678 44.2628 12.8066 44.2628 14.0649C44.2628 15.3231 43.7529 16.4619 42.9281 17.2867C42.1038 18.1114 40.9646 18.6213 39.7063 18.6213C38.448 18.6213 37.3092 18.1115 36.4844 17.2867C35.6597 16.462 35.1498 15.3231 35.1498 14.0649C35.1498 12.8066 35.6597 11.6678 36.4844 10.843C37.3092 10.0183 38.448 9.50837 39.7063 9.50837ZM42.4459 11.3252C41.7446 10.624 40.7762 10.1905 39.7063 10.1905C38.6364 10.1905 37.6679 10.624 36.9667 11.3252C36.2655 12.0264 35.832 12.9949 35.832 14.0648C35.832 15.1346 36.2655 16.1032 36.9667 16.8043C37.6679 17.5055 38.6364 17.9391 39.7063 17.9391C40.7762 17.9391 41.7447 17.5055 42.4459 16.8043C43.1471 16.1031 43.5806 15.1346 43.5806 14.0648C43.5806 12.9949 43.147 12.0263 42.4459 11.3252ZM12.9313 9.50837C14.1896 9.50837 15.3284 10.0182 16.1532 10.843C16.9779 11.6678 17.4878 12.8066 17.4878 14.0649C17.4878 15.3231 16.9779 16.4619 16.1532 17.2867C15.3284 18.1115 14.1896 18.6213 12.9313 18.6213C11.673 18.6213 10.5342 18.1115 9.70945 17.2867C8.88466 16.4619 8.37482 15.3231 8.37482 14.0649C8.37482 12.8066 8.88469 11.6678 9.70945 10.843C10.5342 10.0182 11.673 9.50837 12.9313 9.50837ZM15.6709 11.3252C14.9697 10.624 14.0012 10.1905 12.9313 10.1905C11.8614 10.1905 10.8929 10.624 10.1917 11.3252C9.49052 12.0264 9.057 12.9949 9.057 14.0648C9.057 15.1346 9.49056 16.1032 10.1917 16.8043C10.8929 17.5055 11.8614 17.9391 12.9313 17.9391C14.0012 17.9391 14.9697 17.5055 15.6709 16.8043C16.3721 16.1031 16.8056 15.1346 16.8056 14.0648C16.8056 12.9949 16.372 12.0263 15.6709 11.3252ZM26.1622 1C27.4204 1 28.5592 1.50987 29.384 2.33463C30.2087 3.15935 30.7187 4.29821 30.7187 5.55648C30.7187 6.81476 30.2088 7.95355 29.384 8.77834C28.5593 9.60312 27.4204 10.113 26.1622 10.113C24.9039 10.113 23.7651 9.6031 22.9403 8.77834C22.1156 7.95362 21.6057 6.81476 21.6057 5.55648C21.6057 4.29821 22.1156 3.15942 22.9403 2.33463C23.765 1.50991 24.9039 1 26.1622 1ZM28.9017 2.81682C28.2005 2.1156 27.2321 1.68208 26.1622 1.68208C25.0923 1.68208 24.1237 2.11565 23.4226 2.81682C22.7214 3.51803 22.2879 4.4865 22.2879 5.55639C22.2879 6.62628 22.7214 7.59481 23.4226 8.29596C24.1238 8.99718 25.0923 9.43069 26.1622 9.43069C27.2321 9.43069 28.2006 8.99713 28.9017 8.29596C29.6029 7.59479 30.0365 6.62628 30.0365 5.55639C30.0365 4.4865 29.6029 3.51797 28.9017 2.81682ZM29.6509 24.1307C29.6218 24.1016 29.5989 24.068 29.5823 24.0326L26.5308 20.9811C26.3856 20.8358 26.2709 20.7555 26.1802 20.7488C26.1032 20.743 26.008 20.7986 25.8838 20.9229L21.8077 24.999C21.7712 25.0355 21.7284 25.062 21.6831 25.0782L15.7859 30.9755C15.6701 31.0912 15.5492 31.2022 15.4227 31.3087C15.2963 31.4157 15.1691 31.5137 15.0419 31.6029C14.706 31.8607 14.3288 32.0656 13.9236 32.2035C13.5303 32.3373 13.1089 32.4085 12.672 32.4044C12.2355 32.4085 11.8141 32.3377 11.4207 32.2035C11.0155 32.0656 10.638 31.8607 10.3021 31.6026C10.1749 31.5134 10.0481 31.4153 9.92163 31.3084C9.79555 31.2018 9.67425 31.0905 9.55848 30.9747L2.71375 24.13C1.24161 22.6579 1.01935 20.9878 1.52843 19.6436C1.72715 19.1186 2.0372 18.6457 2.42725 18.2556C2.81731 17.8655 3.29031 17.5555 3.8153 17.3568C5.15946 16.8476 6.82961 17.0699 8.30166 18.5421L12.3777 22.6182C12.5016 22.7421 12.5971 22.7977 12.6742 22.7922C12.7649 22.7856 12.8799 22.7052 13.0248 22.5599L17.0425 18.5422C17.1941 18.3903 17.3482 18.2524 17.5034 18.1267L23.0644 12.5656C23.1802 12.4499 23.3015 12.3389 23.4276 12.232C23.554 12.1251 23.6812 12.027 23.808 11.9378C24.1439 11.6801 24.5211 11.4751 24.9266 11.3372C25.32 11.2034 25.741 11.1322 26.1779 11.1363C26.6148 11.1322 27.0358 11.2034 27.4296 11.3372C27.8348 11.4751 28.2119 11.6801 28.5478 11.9378C28.675 12.027 28.8022 12.1251 28.9287 12.232C29.0547 12.3385 29.176 12.4499 29.2918 12.5652L36.1365 19.41C36.2589 19.5324 36.3725 19.6559 36.4776 19.7805L39.3148 22.6177C39.4387 22.7416 39.5342 22.7973 39.6112 22.7918C39.7019 22.7851 39.8169 22.7048 39.9618 22.5595L43.9792 18.5417C45.4513 17.0696 47.1214 16.8473 48.4656 17.3564C48.9906 17.5551 49.4632 17.8652 49.8536 18.2552C50.2437 18.6453 50.5537 19.1183 50.7524 19.6433C51.2616 20.9874 51.0393 22.6576 49.5671 24.1296L42.7224 30.9744C42.6066 31.0901 42.4857 31.2011 42.3592 31.3076C42.2328 31.4146 42.1056 31.5126 41.9784 31.6019C41.6425 31.8596 41.2654 32.0645 40.8602 32.2024C40.4668 32.3363 40.0454 32.4074 39.6085 32.4033C39.172 32.4074 38.7506 32.3366 38.3572 32.2024C37.952 32.0645 37.5745 31.8596 37.2386 31.6015C37.1114 31.5123 36.9846 31.4142 36.8582 31.3073C36.7317 31.2004 36.6108 31.0894 36.495 30.9736L29.6503 24.1289L29.6509 24.1307ZM32.8126 26.3279L36.9779 30.4932C37.0881 30.6035 37.1947 30.7019 37.2986 30.7893C37.4081 30.8818 37.5191 30.9673 37.6312 31.0462L37.6433 31.0554C37.9228 31.2719 38.2376 31.4437 38.5765 31.5591C38.9027 31.67 39.2493 31.729 39.6065 31.7253H39.6117C39.9689 31.729 40.3158 31.67 40.6421 31.5591C40.9809 31.4437 41.2958 31.2722 41.5752 31.0558L41.5874 31.0466C41.6995 30.9677 41.8108 30.8822 41.9203 30.7896C42.0239 30.7023 42.1308 30.6034 42.2407 30.4936L49.0854 23.6489C50.3392 22.395 50.538 20.9973 50.1162 19.8843C49.9533 19.4537 49.6967 19.0633 49.3719 18.7388C49.0474 18.4144 48.657 18.1578 48.2264 17.9945C47.1134 17.5727 45.7157 17.7718 44.4618 19.0253L40.4441 23.0431C40.1827 23.3044 39.9316 23.4523 39.6592 23.4726C39.3727 23.4939 39.1065 23.3752 38.8326 23.1017L37.4829 21.752C37.6447 22.5044 37.571 23.2403 37.3218 23.898C37.1231 24.423 36.813 24.8959 36.423 25.286C36.0329 25.6761 35.5599 25.9861 35.0349 26.1848C34.3551 26.4425 33.5916 26.5119 32.8126 26.3279ZM35.9725 20.2408L34.7566 19.0249C34.7274 18.9958 34.7046 18.9622 34.688 18.9268L28.8095 13.0484C28.6997 12.9385 28.5927 12.8401 28.4892 12.7523C28.3797 12.6598 28.2683 12.5743 28.1562 12.4954L28.1444 12.4861C27.865 12.2697 27.5501 12.0983 27.2113 11.9829C26.8851 11.8719 26.5381 11.8129 26.1809 11.8166H26.1757C25.8185 11.8129 25.4716 11.8719 25.1457 11.9829C24.8069 12.0983 24.4916 12.2701 24.2122 12.4865L24.2 12.4957C24.088 12.5746 23.977 12.6602 23.8675 12.7527C23.7639 12.8404 23.657 12.9389 23.5467 13.0487L19.4029 17.1926C20.1483 17.0363 20.8772 17.1111 21.529 17.3581C22.054 17.5568 22.527 17.8669 22.917 18.2569C23.3071 18.647 23.6172 19.12 23.8159 19.645C24.0758 20.3311 24.1447 21.102 23.9549 21.888L25.4015 20.4414C25.6754 20.1675 25.9416 20.0491 26.2281 20.0705C26.5009 20.0908 26.752 20.2386 27.013 20.5L31.0304 24.5174C32.2842 25.7712 33.6819 25.97 34.7949 25.5482C35.2255 25.3852 35.6159 25.1286 35.9404 24.8038C36.2648 24.4794 36.5214 24.089 36.6847 23.6584C37.0678 22.6471 36.9391 21.4006 35.9725 20.2408Z" stroke="white" stroke-width="0.977778" mask="url(#path-1-outside-1_38_124)"/>
</svg>
